<svg id="Capa_1" enable-background="new 0 0 512 512" height="512" viewBox="0 0 512 512" width="512" xmlns="http://www.w3.org/2000/svg"><g><path d="m472 259.44v-23.44c0-33.084-26.916-60-60-60h-60v-60c0-33.084-26.916-60-60-60h-232c-33.084 0-60 26.916-60 60v280c0 11.046 8.954 20 20 20h23.44c8.256 23.278 30.487 40 56.56 40s48.303-16.722 56.56-40h198.881c8.256 23.278 30.487 40 56.56 40s48.303-16.722 56.56-40h23.439c11.046 0 20-8.954 20-20v-80c0-26.073-16.722-48.304-40-56.56zm-60-43.44c11.028 0 20 8.972 20 20v20h-80v-40zm-372-100c0-11.028 8.972-20 20-20h232c11.028 0 20 8.972 20 20v260h-155.44c-8.256-23.278-30.487-40-56.56-40s-48.303 16.722-56.56 40h-3.44zm60 300c-11.028 0-20-8.972-20-20s8.972-20 20-20 20 8.972 20 20-8.972 20-20 20zm312 0c-11.028 0-20-8.972-20-20s8.972-20 20-20 20 8.972 20 20-8.972 20-20 20zm60-40h-3.44c-8.256-23.278-30.487-40-56.56-40s-48.303 16.722-56.56 40h-3.44v-80h100c11.028 0 20 8.972 20 20z"/><path d="m100 176h80c11.046 0 20-8.954 20-20s-8.954-20-20-20h-80c-11.046 0-20 8.954-20 20s8.954 20 20 20z"/><path d="m120 236c0 11.046 8.954 20 20 20h80c11.046 0 20-8.954 20-20s-8.954-20-20-20h-80c-11.046 0-20 8.954-20 20z"/><path d="m160 316c0 11.046 8.954 20 20 20h80c11.046 0 20-8.954 20-20s-8.954-20-20-20h-80c-11.046 0-20 8.954-20 20z"/></g></svg>