<?xml version="1.0" encoding="utf-8"?>
<!-- Generator: Adobe Illustrator 19.0.0, SVG Export Plug-In . SVG Version: 6.00 Build 0)  -->
<svg version="1.1" id="Capa_1" xmlns="http://www.w3.org/2000/svg" xmlns:xlink="http://www.w3.org/1999/xlink" x="0px" y="0px"
	 width="290.8px" height="66.8px" viewBox="0 0 290.8 66.8" style="enable-background:new 0 0 290.8 66.8;" xml:space="preserve">
<style type="text/css">
	.st0{fill:#FFFFFF;}
</style>
<g id="XMLID_2_">
	<g id="XMLID_443_">
		<path id="XMLID_495_" class="st0" d="M96.5,15.1c-1.1-4.1-3.7-7.2-9-7.2c-7.7,0-10.9,6.8-10.9,13.7c0,6.9,3.2,13.7,10.9,13.7
			c5.6,0,8.7-4.2,9.2-9.4h6.2c-0.5,8.6-6.6,14.6-15.3,14.6c-10.8,0-17.3-8.6-17.3-18.9c0-10.3,6.5-18.8,17.3-18.8
			c8.1,0.1,14.5,4.5,15.3,12.3H96.5z"/>
		<path id="XMLID_492_" class="st0" d="M127.2,26.6c0-4.5-2.3-9.2-7.4-9.2c-5.1,0-7.4,4.7-7.4,9.2c0,4.5,2.3,9.2,7.4,9.2
			C124.9,35.8,127.2,31.1,127.2,26.6 M106.6,26.6c0-8,4.8-13.7,13.2-13.7c8.4,0,13.2,5.7,13.2,13.7c0,8-4.8,13.8-13.2,13.8
			C111.4,40.4,106.6,34.6,106.6,26.6"/>
		<path id="XMLID_491_" class="st0" d="M137.7,13.6h5.4v3.8l0.1,0.1c1.7-2.9,4.7-4.6,8.1-4.6c5.6,0,9.2,3,9.2,8.9v17.9h-5.8V23.3
			c-0.1-4.1-1.7-5.8-5.1-5.8c-3.8,0-6.3,3-6.3,6.8v15.4h-5.7V13.6z"/>
		<path id="XMLID_488_" class="st0" d="M186,26.6c0-4.5-2.3-9.2-7.4-9.2c-5.1,0-7.4,4.7-7.4,9.2c0,4.5,2.3,9.2,7.4,9.2
			C183.7,35.8,186,31.1,186,26.6 M165.4,26.6c0-8,4.8-13.7,13.2-13.7c8.4,0,13.2,5.7,13.2,13.7c0,8-4.8,13.8-13.2,13.8
			C170.2,40.4,165.4,34.6,165.4,26.6"/>
		<path id="XMLID_485_" class="st0" d="M212.6,3.7h5.8v36h-5.8V3.7z M194,13.6h4.3v-2.2c0-6.7,3.5-7.8,7.2-7.8c1.8,0,3.1,0.1,4,0.4
			v4.5c-0.8-0.2-1.5-0.3-2.7-0.3c-1.6,0-2.8,0.6-2.8,2.7v2.7h4.9v4.3H204v21.8h-5.7V17.9H194V13.6z"/>
		<path id="XMLID_482_" class="st0" d="M242.5,24.3c-0.2-3.6-2.7-6.9-6.6-6.9c-4,0-6.7,3-6.8,6.9H242.5z M229.1,28.1
			c0,4.1,2.2,7.7,7,7.7c3.3,0,5.3-1.5,6.4-4.3h5.4c-1.3,5.7-6.1,8.9-11.8,8.9c-8.1,0-12.7-5.7-12.7-13.7c0-7.4,4.8-13.8,12.6-13.8
			c8.2,0,13.3,7.4,12.3,15.2H229.1z"/>
		<polygon id="XMLID_481_" class="st0" points="259.6,25.9 250.6,13.6 257.6,13.6 263,21.6 268.7,13.6 275.4,13.6 266.5,25.6 
			276.5,39.7 269.6,39.7 263,30 256.5,39.7 249.8,39.7 		"/>
		<path id="XMLID_476_" class="st0" d="M283.2,13.6c0.8,0,1.6-0.1,1.6-1.1c0-0.8-0.8-0.9-1.5-0.9H282v2H283.2z M282,17.4h-1.1v-6.8
			h2.6c1.6,0,2.5,0.6,2.5,1.9c0,1.2-0.8,1.7-1.8,1.8l1.9,3h-1.3l-1.7-2.9h-1V17.4z M283.2,8.9c-2.6,0-4.7,2.1-4.7,5
			c0,2.8,1.8,5,4.7,5c2.6,0,4.7-2.1,4.7-5C287.9,10.9,285.8,8.9,283.2,8.9 M283.2,20c-3.5,0-6-2.6-6-6.1c0-3.7,2.8-6.1,6-6.1
			c3.2,0,6,2.4,6,6.1C289.2,17.6,286.4,20,283.2,20"/>
		<g id="XMLID_471_">
			<g id="XMLID_472_">
				<path id="XMLID_473_" class="st0" d="M79.2,56.5h4.9l-2.4-6.7h0L79.2,56.5z M80.7,48h2.1l5.6,14.4h-2.1l-1.6-4.3h-6.1L77,62.4
					h-2L80.7,48z"/>
			</g>
		</g>
		<g id="XMLID_466_">
			<g id="XMLID_467_">
				<path id="XMLID_468_" class="st0" d="M105.9,54.6c1.8,0,3.3-0.5,3.3-2.6c0-1.4-0.8-2.5-2.6-2.5h-4.7v5H105.9z M100,48h6.8
					c2.7,0,4.4,1.5,4.4,3.8c0,1.7-0.8,3.2-2.5,3.7v0c1.7,0.3,2,1.6,2.2,3c0.1,1.4,0,3,0.9,4h-2.1c-0.5-0.6-0.2-2.1-0.5-3.6
					c-0.2-1.4-0.5-2.6-2.4-2.6h-4.7v6.2H100V48z"/>
			</g>
		</g>
		<g id="XMLID_464_">
			<path id="XMLID_465_" class="st0" d="M134.7,60.6c-1.1,1.5-2.9,2.1-4.6,2.1c-4.3,0-6.9-3.5-6.9-7.3c0-4.2,2.3-7.9,6.9-7.9
				c3.2,0,5.7,1.4,6.2,4.8h-1.9c-0.4-2.2-2.1-3.2-4.3-3.2c-3.5,0-5,3-5,6.1c0,3,1.7,5.8,5,5.8c3,0,4.8-2.1,4.6-4.7h-4.6v-1.6h6.3
				v7.6h-1.2L134.7,60.6z"/>
		</g>
		<g id="XMLID_462_">
			<polygon id="XMLID_463_" class="st0" points="149.4,48 159.4,48 159.4,49.6 151.3,49.6 151.3,54.2 158.8,54.2 158.8,55.8 
				151.3,55.8 151.3,60.8 159.4,60.8 159.4,62.4 149.4,62.4 			"/>
		</g>
		<g id="XMLID_460_">
			<polygon id="XMLID_461_" class="st0" points="171.8,48 173.9,48 181.5,59.7 181.5,59.7 181.5,48 183.3,48 183.3,62.4 181.2,62.4 
				173.7,50.8 173.7,50.8 173.7,62.4 171.8,62.4 			"/>
		</g>
		<g id="XMLID_458_">
			<polygon id="XMLID_459_" class="st0" points="199.9,49.6 195,49.6 195,48 206.6,48 206.6,49.6 201.8,49.6 201.8,62.4 199.9,62.4 
							"/>
		</g>
		<g id="XMLID_456_">
			<rect id="XMLID_457_" x="218.4" y="48" class="st0" width="1.9" height="14.4"/>
		</g>
		<g id="XMLID_454_">
			<polygon id="XMLID_455_" class="st0" points="233.6,48 235.6,48 243.3,59.7 243.3,59.7 243.3,48 245.1,48 245.1,62.4 243,62.4 
				235.5,50.8 235.4,50.8 235.4,62.4 233.6,62.4 			"/>
		</g>
		<g id="XMLID_449_">
			<g id="XMLID_450_">
				<path id="XMLID_451_" class="st0" d="M260.8,56.5h4.9l-2.4-6.7h0L260.8,56.5z M262.3,48h2.1l5.6,14.4h-2.1l-1.6-4.3h-6.1
					l-1.6,4.3h-2L262.3,48z"/>
			</g>
		</g>
		<path id="XMLID_444_" class="st0" d="M33,2C15.9,2,2,15.9,2,33c0,17.1,13.9,31,31,31c17.1,0,31-13.9,31-31C64.1,15.9,50.2,2,33,2
			 M30.6,8.8c0.2-0.9,1-2.5,2.7-2.5c1.7,0,2.6,1.5,2.9,2.4c0,0,0,0.1,0,0.1l2.5,11.3c-5.3,3.5-10.6,0.3-10.6,0.3L30.6,8.8z M27,25.6
			c6.6,4.4,12.7-0.4,12.7-0.4l1.3,6c-9.7,5.6-15.1-0.1-15.3-0.2L27,25.6z M54.3,45.9v0.9c0,0.5-0.3,0.9-0.8,1.1l-23,7.3
			c-1.2,0.5-2,0.3-2.4,0.1l-13.5-6.8c-0.4-0.2-0.6-0.6-0.6-1.1l0-0.9c0,0,0,0,0,0c0,0,0-0.1,0-0.2c0-0.1,0-0.2,0.1-0.2
			c0,0,0,0,0-0.1c0,0,0-0.1,0.1-0.1c0.2-0.3,0.5-0.5,1-0.7c0,0,3.1-1.6,8.1-3l1.2-5.3c8.4,6.5,17.8,0,17.8,0l0.7,3.1
			c3.9,1.8,10.5,4.5,10.5,4.5C54,44.8,54.3,45.3,54.3,45.9C54.3,45.8,54.3,45.9,54.3,45.9"/>
	</g>
</g>
</svg>
